REM DIRINDEX 1\2,1\3
REM DIRNAME folder01,folder02,folder03
TITLE ""
FILE "01.mp3" MP3
  TRACK 01 AUDIO
    TITLE "0:"
    INDEX 01 00:00:00
  TRACK 02 AUDIO
    TITLE "3:cjc132_0001"
    INDEX 01 00:00:15
  TRACK 03 AUDIO
    TITLE "0:"
    INDEX 01 00:01:15
  TRACK 04 AUDIO
    TITLE "2:cjc132_0002"
    INDEX 01 00:01:68
  TRACK 05 AUDIO
    TITLE "0:"
    INDEX 01 00:03:31
  TRACK 06 AUDIO
    TITLE "2:cjc132_0003"
    INDEX 01 00:04:01
  TRACK 07 AUDIO
    TITLE "0:"
    INDEX 01 00:05:30
  TRACK 08 AUDIO
    TITLE "2:cjc132_0004"
    INDEX 01 00:06:04
  TRACK 09 AUDIO
    TITLE "0:"
    INDEX 01 00:07:54
  TRACK 10 AUDIO
    TITLE "2:cjc132_0005"
    INDEX 01 00:08:30
  TRACK 11 AUDIO
    TITLE "0:"
    INDEX 01 00:09:67
  TRACK 12 AUDIO
    TITLE "2:cjc132_0006"
    INDEX 01 00:10:39
  TRACK 13 AUDIO
    TITLE "0:"
    INDEX 01 00:12:03
  TRACK 14 AUDIO
    TITLE "2:cjc132_0007"
    INDEX 01 00:13:08
  TRACK 15 AUDIO
    TITLE "0:"
    INDEX 01 00:15:09
  TRACK 16 AUDIO
    TITLE "2:cjc132_0008"
    INDEX 01 00:17:27
  TRACK 17 AUDIO
    TITLE "0:"
    INDEX 01 00:19:36
  TRACK 18 AUDIO
    TITLE "2:cjc132_0009"
    INDEX 01 00:21:68
  TRACK 19 AUDIO
    TITLE "0:"
    INDEX 01 00:24:10
  TRACK 20 AUDIO
    TITLE "2:cjc132_0010"
    INDEX 01 00:26:46
  TRACK 21 AUDIO
    TITLE "0:"
    INDEX 01 00:28:06
  TRACK 22 AUDIO
    TITLE "2:cjc132_0011"
    INDEX 01 00:29:56
  TRACK 23 AUDIO
    TITLE "0:"
    INDEX 01 00:31:18
  TRACK 24 AUDIO
    TITLE "2:cjc132_0012"
    INDEX 01 00:32:74
  TRACK 25 AUDIO
    TITLE "0:"
    INDEX 01 00:34:51
  TRACK 26 AUDIO
    TITLE "2:cjc132_0013"
    INDEX 01 00:36:54
  TRACK 27 AUDIO
    TITLE "0:"
    INDEX 01 00:38:51
  TRACK 28 AUDIO
    TITLE "2:cjc132_0014"
    INDEX 01 00:40:68
  TRACK 29 AUDIO
    TITLE "0:"
    INDEX 01 00:42:33
  TRACK 30 AUDIO
    TITLE "2:cjc132_0015"
    INDEX 01 00:44:22
  TRACK 31 AUDIO
    TITLE "0:"
    INDEX 01 00:46:21
  TRACK 32 AUDIO
    TITLE "2:cjc132_0016"
    INDEX 01 00:48:44
  TRACK 33 AUDIO
    TITLE "0:"
    INDEX 01 00:49:67
  TRACK 34 AUDIO
    TITLE "2:cjc132_0017"
    INDEX 01 00:51:36
  TRACK 35 AUDIO
    TITLE "0:"
    INDEX 01 00:53:25
  TRACK 36 AUDIO
    TITLE "2:cjc132_0018"
    INDEX 01 00:55:36
  TRACK 37 AUDIO
    TITLE "0:"
    INDEX 01 00:57:15
  TRACK 38 AUDIO
    TITLE "2:cjc132_0019"
    INDEX 01 00:59:20
  TRACK 39 AUDIO
    TITLE "0:"
    INDEX 01 01:01:03
  TRACK 40 AUDIO
    TITLE "2:cjc132_0020"
    INDEX 01 01:03:10
  TRACK 41 AUDIO
    TITLE "0:"
    INDEX 01 01:04:54
  TRACK 42 AUDIO
    TITLE "2:cjc132_0021"
    INDEX 01 01:06:49
  TRACK 43 AUDIO
    TITLE "0:"
    INDEX 01 01:08:03
  TRACK 44 AUDIO
    TITLE "2:cjc132_0022"
    INDEX 01 01:09:54
  TRACK 45 AUDIO
    TITLE "0:"
    INDEX 01 01:11:37
  TRACK 46 AUDIO
    TITLE "2:cjc132_0023"
    INDEX 01 01:13:38
  TRACK 47 AUDIO
    TITLE "0:"
    INDEX 01 01:15:27
  TRACK 48 AUDIO
    TITLE "2:cjc132_0024"
    INDEX 01 01:17:37
  TRACK 49 AUDIO
    TITLE "0:"
    INDEX 01 01:19:15
  TRACK 50 AUDIO
    TITLE "2:cjc132_0025"
    INDEX 01 01:21:20
  TRACK 51 AUDIO
    TITLE "0:"
    INDEX 01 01:22:58
  TRACK 52 AUDIO
    TITLE "2:cjc132_0026"
    INDEX 01 01:24:37
  TRACK 53 AUDIO
    TITLE "0:"
    INDEX 01 01:25:72
  TRACK 54 AUDIO
    TITLE "2:cjc132_0027"
    INDEX 01 01:27:50
  TRACK 55 AUDIO
    TITLE "0:"
    INDEX 01 01:29:15
  TRACK 56 AUDIO
    TITLE "2:cjc132_0028"
    INDEX 01 01:31:00
  TRACK 57 AUDIO
    TITLE "0:"
    INDEX 01 01:32:37
  TRACK 58 AUDIO
    TITLE "2:cjc132_0029"
    INDEX 01 01:34:22
  TRACK 59 AUDIO
    TITLE "0:"
    INDEX 01 01:35:55
  TRACK 60 AUDIO
    TITLE "2:cjc132_0030"
    INDEX 01 01:37:34
  TRACK 61 AUDIO
    TITLE "0:"
    INDEX 01 01:39:00
  TRACK 62 AUDIO
    TITLE "2:cjc132_0031"
    INDEX 01 01:40:60
  TRACK 63 AUDIO
    TITLE "0:"
    INDEX 01 01:42:31
  TRACK 64 AUDIO
    TITLE "2:cjc132_0032"
    INDEX 01 01:44:24
  TRACK 65 AUDIO
    TITLE "0:"
    INDEX 01 01:46:49
  TRACK 66 AUDIO
    TITLE "2:cjc132_0033"
    INDEX 01 01:49:20
  TRACK 67 AUDIO
    TITLE "0:"
    INDEX 01 01:50:60
  TRACK 68 AUDIO
    TITLE "2:cjc132_0034"
    INDEX 01 01:52:49
  TRACK 69 AUDIO
    TITLE "0:"
    INDEX 01 01:54:21
  TRACK 70 AUDIO
    TITLE "2:cjc132_0035"
    INDEX 01 01:56:16
  TRACK 71 AUDIO
    TITLE "0:"
    INDEX 01 01:57:72
  TRACK 72 AUDIO
    TITLE "2:cjc132_0036"
    INDEX 01 01:59:71
  TRACK 73 AUDIO
    TITLE "0:"
    INDEX 01 02:01:48
  TRACK 74 AUDIO
    TITLE "2:cjc132_0037"
    INDEX 01 02:03:43
  TRACK 75 AUDIO
    TITLE "0:"
    INDEX 01 02:05:03
  TRACK 76 AUDIO
    TITLE "2:cjc132_0038"
    INDEX 01 02:06:61
  TRACK 77 AUDIO
    TITLE "0:"
    INDEX 01 02:08:48
  TRACK 78 AUDIO
    TITLE "2:cjc132_0039"
    INDEX 01 02:10:61
  TRACK 79 AUDIO
    TITLE "0:"
    INDEX 01 02:12:33
  TRACK 80 AUDIO
    TITLE "2:cjc132_0040"
    INDEX 01 02:14:26
  TRACK 81 AUDIO
    TITLE "0:"
    INDEX 01 02:16:19
  TRACK 82 AUDIO
    TITLE "2:cjc132_0041"
    INDEX 01 02:18:31
  TRACK 83 AUDIO
    TITLE "0:"
    INDEX 01 02:20:12
  TRACK 84 AUDIO
    TITLE "2:cjc132_0042"
    INDEX 01 02:22:19
  TRACK 85 AUDIO
    TITLE "0:"
    INDEX 01 02:24:10
